<svg width="25" height="24" viewBox="0 0 25 24" fill="none" xmlns="http://www.w3.org/2000/svg">
<path d="M2.94816 11.6942C2.94816 13.3693 2.94259 15.0445 2.95262 16.7197C2.95485 17.0472 2.98492 17.3836 3.05732 17.7043C3.51176 19.7326 5.2638 21.1316 7.34776 21.1338C10.707 21.1383 14.0663 21.1349 17.4267 21.1338C17.5671 21.1338 17.7085 21.126 17.8489 21.1126C20.0643 20.9188 21.8096 19.0498 21.8196 16.8189C21.8341 13.4061 21.8352 9.99224 21.8196 6.57838C21.8074 4.19146 19.8482 2.26232 17.4601 2.25898C14.0763 2.25453 10.6926 2.25453 7.30877 2.26344C6.9568 2.26455 6.59593 2.31133 6.2551 2.39709C4.29589 2.88829 2.95039 4.63031 2.94816 6.65412C2.94705 8.33376 2.94816 10.0134 2.94816 11.6942ZM24.0695 11.7031C24.0695 13.4217 24.0785 15.1414 24.0673 16.8601C24.0462 20.0512 21.6292 22.8301 18.4726 23.2979C18.1229 23.3492 17.7653 23.377 17.4122 23.3781C14.0374 23.3837 10.6625 23.3815 7.28761 23.3815C4.07424 23.3815 1.27632 20.9857 0.788464 17.8046C0.733887 17.4515 0.706041 17.0884 0.704927 16.7297C0.698244 13.3794 0.700472 10.029 0.701586 6.67862C0.7027 3.53542 2.80559 0.877842 5.86972 0.179476C6.3442 0.070322 6.84208 0.0190862 7.33105 0.0179724C10.7004 0.00460655 14.0697 0.00794801 17.439 0.0112895C20.6802 0.0157448 23.4246 2.3247 23.9715 5.51468C24.0417 5.92457 24.064 6.34782 24.0673 6.7655C24.0773 8.41061 24.0718 10.0568 24.0718 11.7031H24.0695Z" fill="white"/>
<path d="M12.3893 7.8513C10.2742 7.84796 8.53883 9.58107 8.54105 11.6996C8.54328 13.808 10.2608 15.5322 12.367 15.5378C14.4967 15.5434 16.2242 13.8281 16.2264 11.7074C16.2286 9.58107 14.5111 7.85465 12.3893 7.8513ZM6.29336 11.7029C6.28334 8.35364 9.00774 5.62143 12.3759 5.60361C15.7141 5.58468 18.4641 8.32022 18.4741 11.6673C18.4852 15.041 15.7664 17.7799 12.4038 17.7855C9.03448 17.791 6.3045 15.0733 6.29336 11.7029Z" fill="white"/>
<path d="M18.6086 4.12793C19.3783 4.12905 19.9998 4.74944 20.0031 5.51909C20.0065 6.29209 19.3761 6.92251 18.6019 6.92028C17.8256 6.91805 17.2063 6.29097 17.2097 5.51241C17.213 4.74499 17.8356 4.12682 18.6086 4.12793Z" fill="white"/>
</svg>
