<svg width="171" height="53" viewBox="0 0 171 53" fill="none" xmlns="http://www.w3.org/2000/svg">
<g clip-path="url(#clip0_542_53)">
<path d="M171 46.7535C171 50.3464 168.475 53.1956 165.478 52.9895C151.932 52.0577 115.953 49.7998 85.4963 49.7998C55.0395 49.7998 18.9858 52.0487 5.52193 52.9895C2.52495 53.1956 0 50.3464 0 46.7535V6.25546C0 2.6626 2.52495 -0.195559 5.52193 0.0194747C18.9858 0.951288 54.6724 3.20914 85.4963 3.20914C116.32 3.20914 151.932 0.942328 165.478 0.010515C168.475 -0.195559 171 2.65364 171 6.2465V46.7535Z" fill="#FF414C"/>
<path d="M33.6306 33H31.5826V21.304H36.0466C38.7026 21.304 40.2546 22.648 40.2546 24.952C40.2546 26.52 39.5186 27.64 38.1426 28.2L40.3666 33H38.1266L36.1426 28.632H33.6306V33ZM33.6306 23.128V26.824H36.0466C37.3426 26.824 38.1106 26.136 38.1106 24.952C38.1106 23.784 37.3426 23.128 36.0466 23.128H33.6306ZM44.6668 33.208C42.3148 33.208 40.6668 31.496 40.6668 29.048C40.6668 26.568 42.2828 24.856 44.6028 24.856C46.9708 24.856 48.4748 26.44 48.4748 28.904V29.496L42.5228 29.512C42.6668 30.904 43.4028 31.608 44.6988 31.608C45.7708 31.608 46.4748 31.192 46.6988 30.44H48.5068C48.1708 32.168 46.7308 33.208 44.6668 33.208ZM44.6188 26.456C43.4668 26.456 42.7628 27.08 42.5708 28.264H46.5388C46.5388 27.176 45.7868 26.456 44.6188 26.456ZM51.9909 33.208C50.3109 33.208 49.2869 32.232 49.2869 30.744C49.2869 29.288 50.3429 28.376 52.2149 28.232L54.5829 28.056V27.88C54.5829 26.808 53.9429 26.376 52.9509 26.376C51.7989 26.376 51.1589 26.856 51.1589 27.688H49.4949C49.4949 25.976 50.9029 24.856 53.0469 24.856C55.1749 24.856 56.4869 26.008 56.4869 28.2V33H54.7749L54.6309 31.832C54.2949 32.648 53.2229 33.208 51.9909 33.208ZM52.6309 31.736C53.8309 31.736 54.5989 31.016 54.5989 29.8V29.384L52.9509 29.512C51.7349 29.624 51.2709 30.024 51.2709 30.664C51.2709 31.384 51.7509 31.736 52.6309 31.736ZM61.3326 33.208C59.0446 33.208 57.6206 31.528 57.6206 29.08C57.6206 26.616 59.0606 24.856 61.4446 24.856C62.5486 24.856 63.5246 25.32 64.0206 26.104V21.096H65.9566V33H64.1646L64.0366 31.768C63.5566 32.68 62.5326 33.208 61.3326 33.208ZM61.7646 31.416C63.1246 31.416 64.0046 30.44 64.0046 29.016C64.0046 27.592 63.1246 26.6 61.7646 26.6C60.4046 26.6 59.5726 27.608 59.5726 29.016C59.5726 30.424 60.4046 31.416 61.7646 31.416ZM70.8793 25.096H72.0153V24.136C72.0153 21.992 73.1513 21.096 74.8633 21.096C75.1673 21.096 75.5353 21.112 75.8713 21.176V22.84H75.1833C74.1913 22.84 73.9513 23.352 73.9513 24.136V25.096H75.8393V26.728H73.9513V33H72.0153V26.728H70.8793V25.096ZM82.1252 25.096H84.0772V33H82.2692L82.1252 31.944C81.6452 32.696 80.6212 33.208 79.5652 33.208C77.7412 33.208 76.6692 31.976 76.6692 30.04V25.096H78.6212V29.352C78.6212 30.856 79.2132 31.464 80.3012 31.464C81.5332 31.464 82.1252 30.744 82.1252 29.24V25.096ZM87.7413 33H85.8053V21.096H87.7413V33ZM91.4369 33H89.5009V21.096H91.4369V33ZM99.5091 33.208C97.8291 33.208 96.8051 32.232 96.8051 30.744C96.8051 29.288 97.8611 28.376 99.7331 28.232L102.101 28.056V27.88C102.101 26.808 101.461 26.376 100.469 26.376C99.3171 26.376 98.6771 26.856 98.6771 27.688H97.0131C97.0131 25.976 98.4211 24.856 100.565 24.856C102.693 24.856 104.005 26.008 104.005 28.2V33H102.293L102.149 31.832C101.813 32.648 100.741 33.208 99.5091 33.208ZM100.149 31.736C101.349 31.736 102.117 31.016 102.117 29.8V29.384L100.469 29.512C99.2531 29.624 98.7891 30.024 98.7891 30.664C98.7891 31.384 99.2691 31.736 100.149 31.736ZM110.563 25.064V26.872H109.843C108.435 26.872 107.555 27.624 107.555 29.16V33H105.603V25.112H107.443L107.555 26.264C107.891 25.48 108.643 24.952 109.699 24.952C109.971 24.952 110.243 24.984 110.563 25.064ZM114.564 33H112.612V26.728H111.092V25.096H112.612V22.632H114.564V25.096H116.1V26.728H114.564V33ZM117.97 23.512C117.298 23.512 116.77 22.984 116.77 22.328C116.77 21.672 117.298 21.16 117.97 21.16C118.61 21.16 119.138 21.672 119.138 22.328C119.138 22.984 118.61 23.512 117.97 23.512ZM116.994 33V25.096H118.946V33H116.994ZM120.179 29.032C120.179 26.584 121.795 24.856 124.131 24.856C126.291 24.856 127.763 26.056 127.971 27.96H126.019C125.795 27.064 125.139 26.6 124.211 26.6C122.963 26.6 122.131 27.544 122.131 29.032C122.131 30.52 122.899 31.448 124.147 31.448C125.123 31.448 125.811 30.968 126.019 30.104H127.987C127.747 31.944 126.211 33.208 124.147 33.208C121.747 33.208 120.179 31.544 120.179 29.032ZM131.088 33H129.152V21.096H131.088V33ZM136.351 33.208C133.999 33.208 132.351 31.496 132.351 29.048C132.351 26.568 133.967 24.856 136.287 24.856C138.655 24.856 140.159 26.44 140.159 28.904V29.496L134.207 29.512C134.351 30.904 135.087 31.608 136.383 31.608C137.455 31.608 138.159 31.192 138.383 30.44H140.191C139.855 32.168 138.415 33.208 136.351 33.208ZM136.303 26.456C135.151 26.456 134.447 27.08 134.255 28.264H138.223C138.223 27.176 137.471 26.456 136.303 26.456Z" fill="white"/>
</g>
<defs>
<clipPath id="clip0_542_53">
<rect width="171" height="53" fill="white"/>
</clipPath>
</defs>
</svg>
