<svg width="80" height="80" viewBox="0 0 80 80" fill="none" xmlns="http://www.w3.org/2000/svg">
<path d="M24.6629 44.3593C24.677 44.3133 24.6911 44.2674 24.7044 44.2215C24.7422 44.0933 24.8488 43.583 25.0666 43.6748C25.2007 43.7318 25.2414 43.9763 25.2718 44.0978C25.3925 44.5852 25.5451 45.0659 25.6518 45.557C25.7273 45.9067 25.7436 46.3526 26.0481 46.5941C26.3385 46.8244 26.9777 46.8948 27.2992 46.7104C27.3414 46.6511 27.3881 46.6252 27.4088 46.5504C27.4214 46.5044 27.4281 46.4244 27.4399 46.3844C27.7377 45.4044 27.9607 44.4074 28.2711 43.4296C28.354 43.1689 28.4162 42.6719 28.6199 42.5052C28.7644 42.3867 29.3185 42.263 29.4229 42.4948C29.4281 42.5059 29.4229 42.5185 29.4266 42.5296C29.4311 42.5422 29.4488 42.5407 29.4511 42.5496C29.4755 42.6459 29.4681 42.7474 29.477 42.8474C29.5311 43.3852 29.4903 43.9356 29.5125 44.4793C29.5466 45.3059 29.5103 46.1726 30.3918 46.5548C30.497 46.6007 30.7155 46.6659 30.834 46.6778C31.197 46.7156 31.5888 46.7659 31.9436 46.6481C31.9762 46.6378 32.0096 46.5519 32.0199 46.5193C32.0199 46.3481 32.1525 45.5096 31.9851 45.4237C31.8459 45.3518 31.6762 45.4363 31.5325 45.4481C31.3636 45.4622 31.177 45.4356 31.0214 45.3674C30.8451 45.2904 30.814 45.0852 30.7977 44.9148C30.7629 44.5459 30.7496 44.1904 30.7422 43.82C30.7348 43.4496 30.7111 43.0415 30.7866 42.6585C30.7903 42.64 30.8066 42.6348 30.8103 42.6222C30.8725 42.4163 31.1192 42.4548 31.294 42.4474C31.534 42.437 31.817 42.4022 32.0533 42.4281C32.3762 42.463 32.7799 42.3489 32.7999 43.0333C32.8155 43.577 32.8548 44.12 32.8777 44.663C32.8948 45.0481 32.9199 45.5407 32.9029 46.0244C32.8985 46.1533 32.8977 46.2985 32.9029 46.4415C32.9051 46.5059 32.9799 46.5407 33.0311 46.5007C33.2948 46.2933 33.9785 45.88 34.054 45.8163C34.157 45.7281 34.2155 45.5978 34.214 45.4622C34.2103 45.16 34.2244 44.577 34.2533 44.2674C34.2911 43.8681 34.2748 43.2518 34.6066 42.9659C34.9888 42.6378 35.434 42.6696 35.9036 42.6622C36.0096 42.6607 36.1444 42.6733 36.2007 42.5652C36.2503 42.4696 36.2259 42.3733 36.2333 42.2726C36.2511 42.0244 36.2711 41.7763 36.2762 41.5274C36.2777 41.46 36.2874 41.3474 36.2288 41.3007C35.9962 41.1141 35.5392 41.183 35.2636 41.2237C34.9081 41.2763 34.6207 41.5326 34.4029 41.803C34.3711 41.843 34.3074 41.9585 34.2525 41.957C34.1925 41.9556 34.177 41.9333 34.1703 41.8778C34.1533 41.7244 34.1888 41.5104 34.1592 41.3674C34.1222 41.1896 33.9044 41.2304 33.7629 41.2326C33.3503 41.2393 32.5399 41.2452 32.1266 41.2585C31.8192 41.2681 31.5096 41.2785 31.2022 41.2844C31.0762 41.2867 30.9244 41.2748 30.8429 41.163C30.694 40.9585 30.7659 40.8526 30.7274 40.3111C30.7177 40.1763 30.7703 39.9793 30.6466 39.883C30.5496 39.8074 30.4059 39.8518 30.2933 39.8607C30.1533 39.8718 30.0125 39.8822 29.874 39.9044C29.7111 39.9304 29.5614 39.9719 29.5718 40.1667C29.5859 40.4126 29.5562 40.6741 29.5281 40.9222C29.5199 40.9948 29.5251 41.0956 29.4955 41.1704C29.4451 41.297 29.3807 41.2696 29.2933 41.3348C28.9392 41.3385 28.5851 41.3274 28.2311 41.3304C27.9503 41.3326 27.577 41.2711 27.4755 41.6141C27.3385 42.0756 27.2466 42.5785 27.1244 43.0519C27.0362 43.3919 26.9362 43.7289 26.8555 44.0704C26.8162 44.2356 26.7992 44.4104 26.7548 44.5733C26.7377 44.6363 26.7185 44.8059 26.6503 44.8407C26.4814 44.9267 26.2392 44.0333 26.2036 43.9133C26.0903 43.5356 26.0022 43.1511 25.8896 42.7733C25.8896 42.7733 25.7073 42.1607 25.7007 42.1393C25.6377 41.9281 25.6392 41.5541 25.377 41.4741C25.2036 41.4207 24.9533 41.4741 24.7733 41.4807C24.6792 41.4844 24.5133 41.4511 24.457 41.5496C24.3481 41.7407 24.3162 41.9778 24.2488 42.1852C24.1592 42.4607 24.0666 42.7356 23.974 43.0096C23.8725 43.3111 23.7711 43.6133 23.677 43.9178C23.6288 44.0741 23.5822 44.2311 23.5377 44.3881C23.5133 44.4763 23.497 44.6919 23.397 44.7326C23.2199 44.8044 23.2088 44.5126 23.1844 44.4133C23.1451 44.2548 23.1111 44.0948 23.0785 43.9341C23.014 43.6133 22.9592 43.2911 22.8948 42.9704C22.8118 42.5778 22.7844 42.083 22.6059 41.7274C22.5599 41.6363 22.4762 41.5504 22.3755 41.5311C22.0814 41.4733 21.6851 41.4096 21.3948 41.5089C21.0481 41.6281 21.3829 42.2437 21.4474 42.4711C21.5859 42.9585 21.7022 43.4511 21.8518 43.9356C21.9785 44.3467 22.1103 44.7563 22.2259 45.1711C22.3259 45.5296 22.3533 45.9859 22.5207 46.317C22.7436 46.7578 23.3607 46.6156 23.7711 46.6156C23.7977 46.5904 23.8318 46.5748 23.857 46.5474C24.1051 46.2696 24.1622 45.8911 24.2636 45.5452C24.3814 45.1437 24.5392 44.7556 24.6644 44.3563L24.6629 44.3593Z" fill="#FEEE00"/>
<path d="M64.0319 32.0274C63.7534 31.1281 62.6867 31.8237 61.6363 32.4215C59.4482 33.6667 57.5815 34.56 55.5778 35.5644C54.9904 35.8593 48.9386 39.1422 48.8615 39.057C48.8615 39.057 48.8037 38.9933 48.7949 38.983C48.6941 38.8696 49.1437 37.4393 49.2319 37.2326C49.2334 37.2274 49.2356 37.2207 49.2371 37.2156C50.5808 31.4333 53.2408 25.9 54.9319 20.1926C55.2008 19.2844 56.5393 16.5481 56.1408 15.6148C55.8104 14.8652 53.9126 14.9244 53.2734 14.9259C52.763 14.9252 52.1512 14.9178 51.6652 15.1037C51.1941 15.2867 50.9897 16.0452 50.5415 16.0793C50.2823 16.0993 49.7208 15.6696 49.4475 15.5763C48.1141 15.1237 46.743 15.4933 45.5238 16.0963C44.9319 16.3889 44.3312 16.7222 43.7845 17.0919C43.4845 17.2948 43.1571 17.483 42.8578 17.7022C42.6541 17.8511 42.3719 17.6733 42.4141 17.4244C42.6949 15.7585 43.0097 14.1304 42.7082 12.4007C42.3252 10.2052 41.2445 8.26222 39.2008 7.27778C35.046 5.27704 30.2504 7.74741 26.7378 9.98889C22.3252 12.803 18.36 16.8667 16.3526 21.7585C15.8304 23.0319 15.44 24.4163 15.503 25.803C15.5875 27.6015 16.7549 28.8341 18.1082 29.8667C18.2763 29.9941 18.3993 30.0644 18.5393 30.2156C18.8237 30.5215 18.6741 30.8244 18.6504 31.1615C18.5015 33.3615 19.2089 35.8052 21.1104 37.0837C21.7704 37.5267 22.5334 37.8081 23.3208 37.9141C26.7571 38.3667 30.2097 35.96 32.3697 33.4978C32.9882 32.7926 33.6 32.0815 34.2193 31.377C34.6119 30.8556 35.023 30.3489 35.4445 29.8504C35.7208 29.5244 36.2519 29.7407 36.2163 30.1667C36.1437 31.0415 36.0741 31.9163 36.02 32.7919C36.0334 32.9674 36.0089 33.1644 35.9986 33.2481C35.9415 33.6881 35.9875 34.1311 36.0941 34.5622C36.3097 35.4215 36.8082 36.1926 37.4978 36.7526C38.9319 37.9193 40.9823 38.0319 42.5793 37.1356C42.5815 37.1326 42.5837 37.1319 42.5889 37.1311C43.8304 36.4289 44.7763 35.2652 45.5652 34.0985C45.6808 33.9259 46.0941 32.8837 46.4645 32.9726C46.6963 33.0281 46.7037 33.2652 46.6282 33.5511C46.5993 33.64 46.5697 33.7296 46.5393 33.8215C46.4312 34.1081 46.2867 34.4015 46.223 34.5881C45.4645 36.8104 44.8578 39.0889 44.0741 41.3067C44.0363 41.3859 43.8763 41.6874 43.5504 41.9163C40.1556 44.2015 36.6675 46.34 33.1726 48.4696C31.3852 49.5593 29.5978 50.6459 27.82 51.7504C27.0126 52.2496 26.1275 52.7793 25.2897 53.2859C24.5282 53.7467 23.0238 54.7178 22.8504 54.8281C21.9282 55.4689 23.6482 56.8422 24.3919 56.783C26.1512 56.6452 27.6578 55.8993 29.4089 56.4711C34.3837 58.0963 34.3749 64.5889 34.4304 68.7941C34.4438 69.7111 34.1423 70.7311 34.3837 71.5993C34.5897 72.3311 35.8963 73.3444 36.6289 73.4481C37.9415 73.6333 38.2104 71.6659 38.4371 70.6963C40.1563 63.377 45.4852 49.1326 45.6808 48.2793C45.8467 47.5511 46.2408 46.3259 46.6475 45.6859C47.0504 45.0489 47.463 44.8496 48.106 44.5C50.9978 42.9207 53.863 41.2956 56.7282 39.6733C58.0097 38.9467 59.4097 38.1704 60.7689 37.4881C62.5845 36.5763 64.7749 36.1785 64.4756 34.1704C64.2467 32.6348 64.326 32.9815 64.0319 32.0289V32.0274ZM38.3156 17.3978C36.9408 20.2674 35.3549 23.0504 33.5393 25.6674C33.3808 25.8963 33.2215 26.1222 33.0578 26.3467C31.2571 28.8578 29.0926 31.4044 26.1534 32.5867C25.3275 32.9193 24.1749 33.1207 23.3489 32.6785C22.9134 32.4452 22.6534 32.057 22.5786 31.5689C22.526 31.2296 22.4919 30.7267 22.6341 30.4015C22.8289 29.9541 23.503 29.8741 23.9149 29.6985C24.7089 29.357 25.4845 28.9978 26.1823 28.4807C26.5408 28.2156 27.1023 27.9104 27.2704 27.4696C27.526 26.8074 27.6749 25.3222 26.6778 25.4304C26.343 25.4667 25.9771 25.7022 25.6719 25.837C25.2363 26.0274 24.2704 26.4437 23.7126 26.663C23.5541 26.7252 23.3926 26.5837 23.426 26.4178C23.4497 26.3067 23.4689 26.2111 23.4882 26.1311C24.0467 23.7933 25.3578 21.4904 26.7052 19.52C28.143 17.4193 29.7978 15.9526 31.5075 14.3852C31.766 14.1459 32.0504 13.9348 32.3089 13.6948C32.4549 13.5585 32.6038 13.417 32.7223 13.2563C32.8986 13.0178 32.9015 12.6067 32.7023 12.3896C32.4682 12.1341 32.24 12.1052 31.94 12.2652C31.0326 12.7489 30.1637 13.3052 29.3378 13.9163C25.686 16.6244 22.7178 19.8815 20.6275 23.9407C20.5393 24.1111 19.9475 25.1859 19.7289 25.7652C19.6334 25.9948 19.4682 25.8793 19.4208 25.8393C18.5371 24.6607 19.0541 23.1778 19.7319 21.9644C20.5023 20.5948 21.383 19.2393 22.3512 17.9993C24.523 15.2215 27.303 12.9148 30.4475 11.3163C32.4334 10.3052 35.7223 9.36889 37.8312 10.5867C39.9015 11.7807 39.1334 15.6926 38.3149 17.4L38.3156 17.3978ZM41.7719 48.9104C41.6067 49.3533 41.3756 49.8096 41.3297 49.9496C40.9912 50.9941 40.6497 52.0378 40.3015 53.0793C39.7941 54.5993 39.2778 56.117 38.7452 57.6289C38.4845 58.3689 38.22 59.1082 37.9512 59.8459C37.8297 60.1793 37.6667 61.3385 37.1534 61.2007C36.506 61.0267 36.8363 60.1881 36.4771 58.9015C36.1578 57.7593 35.646 56.6963 34.86 55.7756C34.4319 55.2741 33.8223 54.9511 33.2489 54.6052C32.9089 54.4015 32.3075 54.1304 32.2149 53.7311C32.1223 53.3333 32.6608 53.0837 32.9623 52.9156C33.506 52.6119 34.0475 52.3082 34.5919 52.0044C35.9934 51.22 37.4423 50.4022 38.8512 49.5889C39.586 49.1667 40.3156 48.743 41.0452 48.3126C41.2097 48.2156 41.48 47.9096 41.6956 47.9348C42.1512 47.9882 41.8756 48.6348 41.7726 48.9104H41.7719ZM45.9393 27.1385C45.7949 27.3644 45.6497 27.5881 45.5023 27.8096C44.7297 28.963 42.0837 33.0874 40.2719 32.017C37.4319 30.3415 41.9563 24.4622 43.1015 23.0926C44.0326 21.9815 45.2023 20.9726 46.5615 20.4311C47.48 20.0644 49.2571 19.8081 48.9149 21.3281C48.5141 23.2519 46.9697 25.497 45.9393 27.1385Z" fill="#FEEE00"/>
</svg>
